<?xml version="1.0" encoding="iso-8859-1"?>
<!-- Generator: Adobe Illustrator 18.0.0, SVG Export Plug-In . SVG Version: 6.00 Build 0)  -->
<!DOCTYPE svg PUBLIC "-//W3C//DTD SVG 1.1//EN" "http://www.w3.org/Graphics/SVG/1.1/DTD/svg11.dtd">
<svg xmlns="http://www.w3.org/2000/svg" xmlns:xlink="http://www.w3.org/1999/xlink" version="1.1" id="Capa_1" x="0px" y="0px" viewBox="0 0 297 297" style="enable-background:new 0 0 297 297;" xml:space="preserve" width="512px" height="512px">
<g>
	<path d="M95.87,9.884C95.87,4.426,91.444,0,85.987,0H20.753c-5.457,0-9.883,4.426-9.883,9.884v148.607   c0,2.534,2.054,4.588,4.588,4.588h75.824c2.534,0,4.588-2.054,4.588-4.588V9.884z" fill="#009133"/>
	<path d="M281.542,163.079c2.534,0,4.588-2.054,4.588-4.588v-34.454c0-5.457-4.428-9.883-9.885-9.883H120.226   c-2.534,0-4.588,2.054-4.588,4.588v39.749c0,2.534,2.054,4.588,4.588,4.588H281.542z" fill="#009133"/>
	<path d="M15.458,182.846c-2.534,0-4.588,2.054-4.588,4.588v99.683c0,5.458,4.426,9.884,9.883,9.884h97.85   c3.742,0,7.166-2.115,8.84-5.464l13.576-27.152h59.123c47.412,0,85.988-33.696,85.988-75.114v-1.836   c0-2.534-2.054-4.588-4.588-4.588H15.458z" fill="#009133"/>
</g>
<g>
</g>
<g>
</g>
<g>
</g>
<g>
</g>
<g>
</g>
<g>
</g>
<g>
</g>
<g>
</g>
<g>
</g>
<g>
</g>
<g>
</g>
<g>
</g>
<g>
</g>
<g>
</g>
<g>
</g>
</svg>
