<?xml version="1.0" encoding="utf-8"?>
<!-- Generator: Adobe Illustrator 16.0.4, SVG Export Plug-In . SVG Version: 6.00 Build 0)  -->
<!DOCTYPE svg PUBLIC "-//W3C//DTD SVG 1.1//EN" "http://www.w3.org/Graphics/SVG/1.1/DTD/svg11.dtd">
<svg version="1.1" id="Capa_1" xmlns="http://www.w3.org/2000/svg" xmlns:xlink="http://www.w3.org/1999/xlink" x="0px" y="0px"
	 width="512px" height="512px" viewBox="0 0 512 512" enable-background="new 0 0 512 512" xml:space="preserve">
<g>
	<g>
		<path fill="#009133" d="M396.41,112.882c-9.657,1.211-36.807,4.62-71.594,8.987c-10.004-6.437-23.313-11.104-38.759-13.464
			c-0.917-8.79-4.04-23.633-15.11-33.678c-8.949-8.183-20.848-11.397-35.314-9.581c-14.487,1.819-25.157,7.898-31.678,18.04
			c-7.672,11.963-7.14,26.359-5.776,35.266c-15.87,6.3-28.749,14.657-37.457,24.017c-44.439,5.579-80.066,10.052-89.586,11.247
			c-28.519,3.581-32.109,28.659-30.65,40.28c12.905-1.62,392.178-49.234,401.542-50.409
			C440.265,129.534,431.154,108.52,396.41,112.882z M239.738,107.992c-7.961,1-15.5,2.591-22.796,4.491
			c-0.537-5.964-0.136-13.431,3.369-18.871c3.312-5.108,9.119-8.144,17.739-9.226c8.667-1.088,15.157,0.436,19.807,4.607
			c4.941,4.491,7.364,11.752,8.441,17.695C257.755,106.502,248.87,106.847,239.738,107.992z"/>
		<path fill="#009133" d="M473.921,241.984c-4.608,1.633-10.296,6.477-14.687,10.734c1.141-10.977,1.89-19.906,2.326-25.679h7.593
			v-19.867H40.516v19.852h11.009c0.202,5.876,0.601,15.039,1.36,26.258c-4.422-4.289-10.18-9.235-14.821-10.852
			c-8.751-3.101-38.062,0-38.062,0v11.844c0,0,28.798-1.008,34.992,2.593c6.196,3.594,12.883,34.039,18.031,34.039
			c0.851,0,2.016,0,3.296,0c5.219,45.018,13.39,98.155,34.993,117.406H74.993v15.032H433v-15.032h-18.75
			c21.077-19.312,33.344-72.717,40.155-117.826c1.813,0,3.453,0,4.564,0c5.155,0,11.844-30.438,18.029-34.056
			c6.202-3.616,35-2.602,35-2.602v-11.844C511.999,241.984,482.672,238.882,473.921,241.984z M105.844,376.469
			c-8.023-14.72-16.453-35.563-19.414-58.518c-0.798-6.202-1.118-10.859-1.148-16.922c0.016-5.468,0.11-10.812,0.398-16.031
			c0.812-10.359,2.031-20.031,3.907-28.234c1.727-8.172,3.868-14.891,5.68-19.469c1.742-4.625,3.148-7.102,3.148-7.102
			s1.172,11.243,2.453,27.359c0.734,8.07,1.438,17.414,2.172,27.415c0.366,4.969,0.734,10.124,1.118,15.344
			c0.375,4.623,0.788,10.828,1.493,15.375c0.562,4.891,1.391,10.187,2.273,15.187c0.945,5.095,1.835,10.095,2.734,14.953
			c2,9.797,3.875,18.969,5.453,26.813c3.46,15.797,5.344,26.984,5.344,26.984S113.742,391.201,105.844,376.469z"/>
	</g>
</g>
</svg>
