<?xml version="1.0" encoding="utf-8"?>
<!-- Generator: Adobe Illustrator 16.0.4, SVG Export Plug-In . SVG Version: 6.00 Build 0)  -->
<!DOCTYPE svg PUBLIC "-//W3C//DTD SVG 1.1//EN" "http://www.w3.org/Graphics/SVG/1.1/DTD/svg11.dtd">
<svg version="1.1" id="Capa_1" xmlns="http://www.w3.org/2000/svg" xmlns:xlink="http://www.w3.org/1999/xlink" x="0px" y="0px"
	 width="512px" height="512px" viewBox="0 0 512 512" enable-background="new 0 0 512 512" xml:space="preserve">
<g>
	<path fill="none" d="M256,248c-40.272,0-74.114-27.522-83.749-64.784c9.484,37.418,43.375,65.104,83.749,65.104
		c40.36,0,74.258-27.683,83.747-65.098C330.11,220.48,296.27,248,256,248z"/>
	<path fill="#134352" d="M256,0C167.623,0,96,71.642,96,160c0,152.768,160,352,160,352s160-199.232,160-352
		C416,71.642,344.365,0,256,0z M256,248.32c-40.374,0-74.264-27.686-83.749-65.104C170.457,176.277,169.5,169,169.5,161.5
		c0-47.772,38.728-86.5,86.5-86.5s86.5,38.728,86.5,86.5c0,7.502-0.958,14.781-2.753,21.722
		C330.258,220.637,296.36,248.32,256,248.32z"/>
	<path fill="#FFFFFF" d="M256,75c-47.772,0-86.5,38.728-86.5,86.5c0,7.5,0.957,14.777,2.751,21.716
		C181.886,220.478,215.728,248,256,248c40.27,0,74.11-27.52,83.747-64.778c1.795-6.941,2.753-14.22,2.753-21.722
		C342.5,113.728,303.772,75,256,75z"/>
</g>
</svg>
