<?xml version="1.0" encoding="utf-8"?>
<!-- Generator: Adobe Illustrator 21.1.0, SVG Export Plug-In . SVG Version: 6.00 Build 0)  -->
<svg version="1.1" id="Laag_1" xmlns="http://www.w3.org/2000/svg" xmlns:xlink="http://www.w3.org/1999/xlink" x="0px" y="0px"
	 viewBox="0 0 220 205.6" style="enable-background:new 0 0 220 205.6;" xml:space="preserve">
<style type="text/css">
	.st0{fill:#329645;}
	.st1{fill:#FFFFFF;}
	.st2{fill:#4A4C50;}
	.st3{fill:none;stroke:#4A4C50;stroke-width:1.3492;stroke-linecap:round;stroke-linejoin:round;stroke-miterlimit:10;}
	.st4{fill:none;stroke:#4A4C50;stroke-width:2.1606;stroke-linecap:round;stroke-linejoin:round;stroke-miterlimit:10;}
	.st5{fill:none;stroke:#4A4C50;stroke-width:2;stroke-linecap:round;stroke-linejoin:round;stroke-miterlimit:10;}
	.st6{fill:none;stroke:#4A4C50;stroke-width:2.0768;stroke-linecap:round;stroke-linejoin:round;stroke-miterlimit:10;}
	.st7{fill:#4A4C50;stroke:#FFFFFF;stroke-miterlimit:10;}
	.st8{display:none;}
	.st9{display:inline;fill:#4A4C50;}
	.st10{fill:#4A4C50;stroke:#4A4C50;stroke-width:0.7964;stroke-miterlimit:10;}
	.st11{fill:#4A4C50;stroke:#4A4C50;stroke-width:0.7964;stroke-linejoin:round;stroke-miterlimit:10;}
	.st12{fill:#FFFFFF;stroke:#FFFFFF;stroke-width:0.7964;stroke-miterlimit:10;}
	.st13{fill:#4A4C50;stroke:#4A4C50;stroke-width:1.2799;stroke-miterlimit:10;}
	.st14{fill:#4A4C50;stroke:#4A4C50;stroke-width:1.2799;stroke-linejoin:round;stroke-miterlimit:10;}
	.st15{fill:#FFFFFF;stroke:#FFFFFF;stroke-width:1.2799;stroke-miterlimit:10;}
	.st16{fill:#FFFFFF;stroke:#4A4C50;stroke-width:2.0768;stroke-linecap:round;stroke-linejoin:round;stroke-miterlimit:10;}
	.st17{fill:#FFFFFF;stroke:#FFFFFF;stroke-miterlimit:10;}
</style>
<g>
	<g>
		<g>
			<g>
				<g>
					<g>
						<path class="st13" d="M137.5,69.9c-7.4-10.9-6.8-7.1,0.1-17.8c1.2-1.8,3.6-3.7,0.3-5.7c-3.1-2-4,1-5.2,2.7
							c-4.7,6.5-4.7,6.5-9.3,0.2c-0.5-0.6-0.9-1.3-1.3-1.9c-1-1.5-2.2-2.2-3.8-0.9c-1.5,1.1-1.9,2.4-0.9,4c1.5,2.3,2.8,4.7,4.5,6.7
							c2.1,2.5,2,4.5,0.2,7.2c-11.1,16.4-21.4,33.9-34,52.1H111l17.2-20.3l16.3,20.3h23.4L137.5,69.9z"/>
						<polygon class="st13" points="113.7,116.5 111,116.5 113.1,116.5 						"/>
					</g>
					<path class="st14" d="M88.2,116.5l54.7,0v0h25c-12.6-18.1-22.8-35.7-34-52.1c-1.8-2.7-1.9-4.7,0.2-7.2"/>
				</g>
				<path class="st15" d="M111.4,113.8c4.2-6.7,9.7-13.7,14.2-20.2c1.9-2.6,3.6-2.5,5.4,0.1c4.3,6.2,9.6,14,14,20.1
					c1.2,1.7,2,2.8,2,2.8h-35.8h-1.7L111.4,113.8"/>
			</g>
			<g>
				<g>
					<path class="st2" d="M39.9,141.3v3.1c0,3.8-1.9,5.9-5.5,5.9s-5.5-2.1-5.5-5.9v-12.2c0-3.8,1.9-5.9,5.5-5.9s5.5,2.1,5.5,5.9v2.3
						h-3.5V132c0-1.7-0.7-2.3-1.9-2.3c-1.2,0-1.9,0.6-1.9,2.3v12.7c0,1.7,0.7,2.3,1.9,2.3c1.2,0,1.9-0.6,1.9-2.3v-3.3H39.9z"/>
					<path class="st2" d="M62.1,150.1h-3.7l-0.6-4.3h-4.5l-0.6,4.3h-3.4l3.8-23.4h5.4L62.1,150.1z M53.7,142.6h3.6l-1.8-11.9
						L53.7,142.6z"/>
					<path class="st2" d="M79.7,143.3l2.5-16.6h5.1v23.4h-3.5v-16.8l-2.5,16.8h-3.5L75,133.5v16.6h-3.2v-23.4H77L79.7,143.3z"/>
					<path class="st2" d="M108.9,132.4v3c0,3.8-1.8,5.8-5.5,5.8h-1.7v8.8H98v-23.4h5.4C107.1,126.6,108.9,128.7,108.9,132.4z
						 M101.7,130v7.9h1.7c1.2,0,1.8-0.5,1.8-2.2v-3.5c0-1.7-0.6-2.2-1.8-2.2H101.7z"/>
					<path class="st2" d="M123.8,126.4c3.6,0,5.4,2.1,5.4,5.9v0.7h-3.5v-1c0-1.7-0.7-2.3-1.8-2.3c-1.2,0-1.8,0.6-1.8,2.3
						c0,4.8,7.2,5.7,7.2,12.4c0,3.8-1.9,5.9-5.5,5.9c-3.6,0-5.5-2.1-5.5-5.9V143h3.5v1.7c0,1.7,0.7,2.3,1.9,2.3
						c1.2,0,1.9-0.6,1.9-2.3c0-4.8-7.2-5.7-7.2-12.4C118.4,128.5,120.2,126.4,123.8,126.4z"/>
					<path class="st2" d="M139.4,126.6h3.7v23.4h-3.7V126.6z"/>
					<path class="st2" d="M152.7,126.6h11.4v3.3h-3.9v20.1h-3.7V130h-3.9V126.6z"/>
					<path class="st2" d="M177.5,136.5h5.1v3.3h-5.1v6.9h6.4v3.3h-10v-23.4h10v3.3h-6.4V136.5z"/>
				</g>
				<g>
					<line class="st4" x1="34.7" y1="116.7" x2="178" y2="116.7"/>
					<line class="st4" x1="34.7" y1="159.9" x2="178" y2="159.9"/>
				</g>
			</g>
		</g>
	</g>
	<path class="st2" d="M91.9,115.8H74.8v-15.6h10.1c0.3,0,0.5-0.1,0.7-0.3l4.4-4.1c0.2-0.2,0.3-0.4,0.3-0.7c0-0.3-0.1-0.5-0.3-0.7
		l-4.4-4.1c-0.2-0.2-0.4-0.3-0.7-0.3H74.8V85h10.1c0.3,0,0.5-0.1,0.7-0.3l4.4-4.1c0.2-0.2,0.3-0.4,0.3-0.7c0-0.3-0.1-0.5-0.3-0.7
		L85.6,75c-0.2-0.2-0.4-0.3-0.7-0.3H74.8v-1.9c0-1.9-1.5-3.4-3.4-3.4c-1.9,0-3.4,1.5-3.4,3.4v1.9H57.9c-0.3,0-0.5,0.1-0.7,0.3
		l-4.4,4.1c-0.2,0.2-0.3,0.4-0.3,0.7c0,0.3,0.1,0.5,0.3,0.7l4.4,4.1c0.2,0.2,0.4,0.3,0.7,0.3H68v14.9H57.9c-0.3,0-0.5,0.1-0.7,0.3
		l-4.4,4.1c-0.2,0.2-0.3,0.4-0.3,0.7c0,0.3,0.1,0.5,0.3,0.7l4.4,4.1c0.2,0.2,0.4,0.3,0.7,0.3H68v5.7H50.9c-0.5,0-1,0.4-1,1
		c0,0.5,0.4,1,1,1h41c0.5,0,1-0.4,1-1C92.9,116.2,92.5,115.8,91.9,115.8z M84.5,91.9l3.3,3.1l-3.3,3.1h-9.7v-6.3H84.5z M70,72.9
		c0-0.8,0.6-1.4,1.4-1.4c0.8,0,1.4,0.6,1.4,1.4v1.9H70V72.9z M55,79.8l3.3-3.1h26.2l3.3,3.1L84.5,83H58.3L55,79.8z M58.3,108.1
		l-3.3-3.1l3.3-3.1H68v6.3H58.3z M70,85h2.9v30.8H70V85z"/>
</g>
</svg>
