<?xml version="1.0" encoding="utf-8"?>
<!-- Generator: Adobe Illustrator 16.0.4, SVG Export Plug-In . SVG Version: 6.00 Build 0)  -->
<!DOCTYPE svg PUBLIC "-//W3C//DTD SVG 1.1//EN" "http://www.w3.org/Graphics/SVG/1.1/DTD/svg11.dtd">
<svg version="1.1"
	 id="svg2584" inkscape:output_extension="org.inkscape.output.svg.inkscape" sodipodi:docname="Belgique_vierge.svg" xmlns:dc="http://purl.org/dc/elements/1.1/" xmlns:cc="http://creativecommons.org/ns#" xmlns:rdf="http://www.w3.org/1999/02/22-rdf-syntax-ns#" xmlns:svg="http://www.w3.org/2000/svg" xmlns:sodipodi="http://sodipodi.sourceforge.net/DTD/sodipodi-0.dtd" xmlns:inkscape="http://www.inkscape.org/namespaces/inkscape" inkscape:version="0.47 r22583" sodipodi:version="0.32"
	 xmlns="http://www.w3.org/2000/svg" xmlns:xlink="http://www.w3.org/1999/xlink" x="0px" y="0px" width="1014px" height="828px"
	 viewBox="0 0 1014 828" enable-background="new 0 0 1014 828" xml:space="preserve">
<sodipodi:namedview  inkscape:window-maximized="0" inkscape:window-y="-8" inkscape:window-x="-8" inkscape:window-height="882" inkscape:pageopacity="0.0" inkscape:window-width="1400" inkscape:current-layer="svg2584" inkscape:pageshadow="2" objecttolerance="10.0" guidetolerance="10.0" gridtolerance="10.0" showgrid="false" inkscape:cy="535.47749" inkscape:cx="523.06931" inkscape:zoom="0.91062802" borderopacity="1.0" bordercolor="#666666" pagecolor="#ffffff" id="base">
	</sodipodi:namedview>
<defs>
	
	
		<inkscape:perspective  inkscape:persp3d-origin="507 : 276 : 1" inkscape:vp_z="1014 : 414 : 1" inkscape:vp_y="0 : 1000 : 0" inkscape:vp_x="0 : 414 : 1" sodipodi:type="inkscape:persp3d" id="perspective20">
		</inkscape:perspective>
	
		<inkscape:perspective  inkscape:persp3d-origin="0.5 : 0.33333333 : 1" inkscape:vp_z="1 : 0.5 : 1" inkscape:vp_y="0 : 1000 : 0" inkscape:vp_x="0 : 0.5 : 1" sodipodi:type="inkscape:persp3d" id="perspective2826">
		</inkscape:perspective>
</defs>
<g id="layer1" transform="translate(98.4797, -104.219)">
	<path id="path2622" opacity="0.7" fill="#009133" stroke="#FFFFFF" stroke-width="3" d="M131.428,415.934l-6.254,0.917
		l-1.402,6.806l-8.371,1.295l-1.741,7.589l-10.765-5.57l0.809-5.411l-5.669-7.411l-11.607,0.357l-10.179-7.143l-10.536,6.428
		l7.143,15.715l7.857,1.429l6.429,7.856l-5,10.715l5,22.857l4.286,25.714L100,512.363l17.143,10.714l25.714-15L155,510.219
		l-8.571,12.857l20-4.285l15.714,9.285l12.143,20l-3.572,23.571l2.071,15.377l11.205,13.368l4.184-5.199l2.663-12.954l16.696-2.596
		l13.896,2.004l11.429,9.286l31.97-11.263l28.03,24.834l3.571,16.429l7.857-0.715l-1.429-12.143l12.857,7.857v10.714L320,638.791
		l0.715,21.428l-8.571,10l6.428,2.857l12.857-1.429l0.715,12.857L340,698.076l-9.285,9.286L320,706.648l-5,12.857l7.857,7.857
		l-3.571,8.571l12.857,6.429l27.143-4.286l34.285,12.857l2.857-5.715l-8.571-18.571l-0.714-21.429l-4.286-9.285l-2.143-17.857
		l5-3.571l-4.286-10.714l-6.429-5l7.857-9.286v-10l2.143-8.571l-7.856-4.286l-7.144,5l-15-9.285l14.286-12.144l13.571-5.714
		l1.429-7.857l18.571,2.857l2.143-7.857h7.857l6.429,5.715l16.429-5L435,585.934l-2.143-12.143l5.714-5.715l-4.285-5l4.285-3.571
		l4.286-10h-6.429l-5.714-9.286l5.714-10L435,522.363l-7.856-0.715v-8.571l4.285-2.857v-7.143l-17.143,5.714l-2.857-5.714l-8.571,5
		L405,497.363l-20-3.572h-9.285l-7.857,8.572l-0.714-10l-8.572-3.572l-6.428-7.143L345,480.219l-0.714-7.856l-11.429-4.286
		l-0.714-10.714l-5.715-4.286l-9.285,14.286L305,463.79v-12.856l1.429-7.857l-2.857-8.571l-4.285-1.429l-7.143,5l-20,5.714
		l-12.857-4.285l-7.857-7.143l1.429-9.286l-4.286-5.714l-11.429,2.143l-7.857-3.571h-7.857l-5-9.286l-10.714,2.143v-5l-9.286,3.571
		l-10,14.286v9.286l-10-7.857h-14.286v-7.143l-2.857-5l-10.714,2.856l-10-5L131.428,415.934z"/>
	<path id="path2624" opacity="0.7" fill="#009133" stroke="#FFFFFF" stroke-width="3" d="M59.094,403.844l6.62,9.946l10.536-6.428
		l10.179,7.143l11.607-0.357l5.669,7.411l-0.809,5.411l10.765,5.57l1.741-7.589l8.371-1.295l1.402-6.806l6.254-0.917l7.143-7.143
		l6.891-4.947l3.03-6.061l6.061-1.01l2.525-2.525l-6.566-10.102l3.536-1.01l-7.576-11.111h-4.545l-5.051-6.566l5.051-0.505
		l4.545-6.566l-7.576-7.071l-5.051,4.546l-5.556-5.051l4.041-5.051l-0.505-6.061l6.566,3.536l2.021-3.536l-5.556-2.02l5.556-0.505
		l-3.031-4.041l-8.081-0.505l-1.01-3.031l7.576-4.041l-4.041-4.041l3.03-5.556l4.546-5.051l-8.082-14.143l3.536-1.01l2.021-2.525
		l-13.637-9.597l-13.132-10.102l-1.515-3.535l12.627-9.092l6.061-12.627l-4.545-13.132l-7.071-2.02l6.566-4.546l-3.03-7.576
		l-1.01-2.525l8.082-3.536v-4.041l-5.556-13.132l2.021-3.536l-5.051-4.546l3.03-2.02l-4.545-5.051l8.586-7.576l-5.051-6.061
		l1.01-4.545l-3.536-4.546l-35.355,13.132l-9.091-4.546l-3.031,7.576l-26.264,9.596l-6.566,7.576L7.576,210.4l-5.051,0.505
		l-8.081,8.082l-58.083,35.86l-33.84,15.657l5.051,11.617l2.525,19.698l1.515,7.071l7.071,2.021l-0.505,5.051l6.061,16.667
		l-12.122,10.102l5.05,1.515l1.516,20.203l-4.546,6.061h5.051l4.546,15.152l7.071,1.515l1.515-5.05l3.536,4.545l8.586-1.515
		l2.525,2.525v5.556l9.091,10.102l-0.505,4.041l5.556,5.051l6.566,14.646l10.102-2.525l5.051,6.566l2.021-2.525l-7.071-10.102
		l3.536-1.516l-3.031-5.051l8.082-3.535l5.051,4.546l6.566-3.031v-2.525l11.617-4.041l-5.051-8.586l14.142-6.061l4.546,1.515v9.596
		l4.041,1.516l-2.525,4.041l10.606-4.546l7.071,5.051l5.556-10.102l4.041,3.031h6.566L59.094,403.844z"/>
	<path id="path2639" opacity="0.7" fill="#009133" stroke="#FFFFFF" stroke-width="3" d="M257.589,425.058l-4.731-1.981
		l-4.286-5.714l-11.429,2.143l-7.857-3.571h-7.857l-5-9.286l-10.714,2.143v-5l-9.286,3.571l-10,14.286v9.286l-10-7.857h-14.286
		v-7.143l-2.857-5l-10.714,2.856l-10-5l6.891-4.947l3.03-6.061l6.061-1.01l2.525-2.525l-6.566-10.102l3.536-1.01l-7.576-11.111
		h-4.545l-5.051-6.566l5.051-0.505l4.545-6.566l-7.576-7.071l-5.051,4.546l-5.556-5.051l4.041-5.051l-0.505-6.061l6.566,3.536
		l2.021-3.536l-5.556-2.02l5.556-0.505l-3.031-4.041l-8.081-0.505l-1.01-3.031l7.576-4.041l-4.041-4.041l3.03-5.556l4.546-5.051
		l-8.082-14.143l3.536-1.01l2.021-2.525l-13.637-9.597l-13.132-10.102l-1.515-3.535l12.627-9.092l6.061-12.627l-4.545-13.132
		l-7.071-2.02l6.566-4.546l-3.03-7.576l-1.01-2.525l8.082-3.536v-4.041l-5.556-13.132l10.606,9.091l3.031,6.566l25.254-2.525
		l-2.525-16.667l13.637-2.021l3.031,2.021l3.03-6.566l12.122,7.071l4.545-1.515l15.152,8.586l20.203,6.061l-1.515,18.183
		l18.688,1.01l5.051-5.051h3.536l-4.041,9.091l8.586-2.021l3.535-6.566l3.536,3.536l18.688-11.617h12.122l28.79-21.213
		l17.678-24.244l8.081,4.041v12.122l2.525,7.071l9.597,2.525v6.061l-5.556,7.576l1.515,17.678l4.041,11.617h3.03l-1.01,21.718
		l-4.546,4.546l-8.081-0.505l-7.071,4.546l-6.566-3.536h-4.04l-8.081,7.071l-1.516,8.081h4.041v9.597h3.535l-3.535,7.071l4.04,5.051
		l6.566-4.546l3.535,3.031l-1.01,6.566l-4.546,2.525l3.535,4.546l-11.111,9.091l-8.586-3.536l-4.041,9.091l4.546,8.586l-2.525,2.525
		l-3.536,9.091l-10.606-5.556l-3.535,11.617h-3.536l5.051,6.566l-1.515,6.061l-5.051,0.505l-6.566,15.657h9.091v8.082l-6.566,12.122
		l-6.566,0.505l-2.525,5.051l-4.041-4.545l-1.515,5.556h-7.576l1.01-5.051h-4.546l-4.041,8.586v4.546l4.041,5.051l-2.525,3.03
		L257.589,425.058z"/>
	<path id="path2184" opacity="0.7" fill="#009133" stroke="#FFFFFF" stroke-width="3" d="M343.452,168.984l-6.309-8.764l30-1.072
		l6.428,8.929l8.572,0.357l11.428-8.929l-13.928-18.571l4.643-8.929l-4.643-2.143l22.5-12.857l18.571-0.714l3.571,4.643
		l-6.429,5.714l1.429,12.857l10.357-4.643l16.785,5l7.857-1.428l-2.143-7.857l8.928-2.5l1.786-7.143l11.786-12.857l7.856-2.857
		l9.644,6.428l2.143,3.929l3.929,0.357l-1.429,10.714L495,129.505l0.715,11.429l-11.786-5h-4.643l1.429,6.786l4.285,2.143
		l13.571-2.857l5.357,3.571l6.071-3.571l9.644,10l22.856-26.071l-2.5-4.643l8.571-9.286l2.857,6.786l8.571,0.714l6.071,16.071
		l-7.5,15.714l14.644,20l0.714,10.357l8.215,3.929l8.571-5.357l11.071,7.5l-3.215,13.928l2.5,3.572l-5.356,5.714l0.356,14.643
		l11.786,11.429l-0.357,15.357l-6.785,6.072l-6.071-3.929L590,263.076l-14.643,2.857l-9.286,9.286l-2.143,3.214l-19.643,5.714
		l-2.143,6.072l-6.786,8.928l-3.929-5l-5,4.286h-8.571l-2.143,5l-7.857,1.786l-8.214,4.643h-8.215l-0.357-6.071l-5.356-6.071
		l-6.786,7.143l-7.857-1.786L465,310.934l-2.856,4.643l1.785-7.857l-3.214-0.714l-1.429-2.857l-10,1.429l-5.715,3.571h-4.643
		l-1.785,7.857l-6.786,0.357l-5.714-5l-7.144,4.643l-9.285-7.143l-5.715,6.072l-3.929-3.572l-8.214,3.572l-8.214-1.786l0.356-4.286
		l-4.643-1.428l1.071-6.786l-5,5.714l-7.143-1.428l-6.071-7.857l-9.644-1.429L350,299.505l-6.043,0.293l-3.535-3.031l-6.566,4.546
		l-4.04-5.051l3.535-7.071h-3.535v-9.597h-4.041l1.516-8.081l8.081-7.071h4.04l6.566,3.536l7.071-4.546l8.081,0.505l4.546-4.546
		l1.01-21.718h-3.03l-4.041-11.617l-1.515-17.678l5.556-7.576v-6.061l-9.597-2.525l-2.525-7.071v-12.122L343.452,168.984z
		 M517.143,134.505l7.143,3.214l2.857-11.786l-7.857,3.571L517.143,134.505z"/>
	<path id="path2198" opacity="0.7" fill="#009133" stroke="#FFFFFF" stroke-width="3" d="M601.071,205.219l7.144-2.5l7.143,2.5
		l12.5-0.357l0.714-6.071l19.286,6.429l5.714-10l5.715,0.714l5-6.786l7.5,0.714l12.857,13.214l-0.357,15.714l24.643,11.071
		l0.357,4.643l14.285,1.786l10.715-2.5l7.143,3.929L740,243.076l2.144,5.357l12.5-6.072l7.143,9.286l-2.5,5.714h-5.715l-3.928,7.143
		l6.071,2.5L755,273.076l-5-1.786l-4.285,1.786l4.643,4.286l-2.5,3.929l0.357,5l-7.5-0.714v4.643l-3.571,7.143l6.071,2.857l-4.644,5
		l2.144,6.071l-12.5,16.786l1.429,3.929l5.714-5.714l3.214,3.571l-8.214,12.143l-0.714,8.214l-6.429-2.5l-4.644,12.143l-8.571,5
		l-2.143,11.429l5,10l9.286,3.571l-11.072,2.143l-0.714,7.857l-13.571,5l-10.715,4.643l-7.143,2.143l-1.429,6.786l-10.356,7.143
		l-1.072-3.214l-3.571-3.215v3.929l-4.285,3.929h-7.5l-6.071-5.357l-1.786-5.356l-1.786,1.785l-8.214-0.357l-9.643,7.144l-0.357,5
		l-8.571-5.715l-4.643,6.071l-5-0.356l-0.715-3.929l-2.5,3.571l-14.643-1.786l0.357,4.286l3.214,4.643l-3.929,2.5l-9.285-2.143
		l-7.857-6.071l3.929-8.929l-4.286-3.571l2.5-7.857v-12.143l5,0.714l3.215-8.571l-3.572-0.357l2.144-15.714l4.285-7.143
		l-0.714-3.928l4.643,2.5l3.571-9.286l-2.143-7.143H577.5l-1.429-3.929L565,350.219l-3.929-4.643l-3.928,2.143l-6.072-12.143
		l11.072-7.5l-0.715-7.5l8.571-6.071h3.215l-2.144-10l2.5,2.143h3.572l3.571-3.214l-10-10.714h-9.644l1.072,10.357l-5.715,3.929
		l-3.571-3.571l-6.786,1.786l-3.928-7.143l-6.786,1.071l6.786-8.928l2.143-6.072l19.643-5.714l2.143-3.214l9.286-9.286L590,263.076
		l4.644-8.571l6.071,3.929l6.785-6.072l0.357-15.357l-11.786-11.429l-0.356-14.643L601.071,205.219z"/>
	<path id="path2248" opacity="0.7" fill="#009133" stroke="#FFFFFF" stroke-width="3" d="M490,743.076l9.286,4.286l2.5-2.144
		l4.643,8.929l6.071,2.144l2.144,7.5l-2.857,5.356l-3.571,12.144h-4.286l2.857,8.214l3.214,1.429v7.5l3.215,2.857l-3.571,0.356
		l-1.429,6.071l-2.144,3.572l17.144,2.143l8.214-5.357l6.071-1.071l3.215-10l1.785-11.071l8.571-5l-0.714-2.857h3.929l6.785-5.714
		l-4.285-3.571l5.714-8.215l7.5-2.143l5.715-0.715l-5.357-7.5l1.071-9.285l-3.571-0.357l-7.143-7.857l-3.215-1.785l-7.5,3.929
		l-4.285-2.144l2.143-4.643l-10-14.643l3.929-0.715l2.143-6.071l3.571,2.857l6.071-5.357l6.072-11.071l-1.429-10.714l3.571-7.857
		l-0.715,6.786l2.5,5l10.715-2.144l9.285,2.857l19.286-3.214l1.429-5l10.357,1.071l1.071-3.571l-6.786-6.786l7.5-1.786l2.5-5.714
		l-11.071-13.929l0.357-7.857l-3.571-3.928l-7.144-0.715l5-4.643l3.571,3.571l6.786-4.286l-3.929-3.928l9.286-3.572l2.5,3.215
		l12.5-9.643l14.285-10l-1.429-10.715L640,593.434l-5.356,5l-1.786-2.857l2.5-3.571l5.714-2.5l6.429-4.643l-4.285-5l6.071-7.144
		l-2.747-5.728l-2.253-1.772l-4.643,2.857l-3.572-3.929l-14.285,10l-5.357-5.356l1.786-7.857l-12.857-1.429l-3.214-6.786
		l2.856-1.785v-5.715l-10.714-17.856l-3.929,1.071l-2.143,4.285l-4.644-5l0.715-4.643l-5,2.143l-2.5-6.785l3.571-4.286l-9.643,2.5
		l-4.644-9.285l-8.571-1.071l-1.071-7.857l-6.071-13.215l-7.5-6.071v-3.571l-4.643-4.643l-0.357-8.571l-5-3.571l-5.357,1.428
		l-3.571,7.144l-6.071-0.715l-3.214,2.5l-18.572,5.715h-3.928l-3.929,8.214c0,0-2.5-3.214-2.5-4.643s-6.071,0.357-6.071,0.357
		l-4.286,3.928l-3.571-8.928l-5.715,3.214L465,480.934l-8.214-5.715l-5,1.786l1.071,10.357l4.643,3.929l-7.856,3.928l-10-3.928
		l-9.286,5.356l1.071,6.429v7.143l-4.285,2.857v8.571l7.856,0.715l1.429,7.856l-5.714,10l5.714,9.286h6.429l-4.286,10l-4.285,3.571
		l4.285,5l-5.714,5.715L435,585.934l0.715,6.429l-16.429,5l-6.429-5.715H405l-2.143,7.857l-18.571-2.857l-1.429,7.857l-13.571,5.714
		L355,622.363l15,9.285l7.144-5l7.856,4.286l-2.143,8.571v10L375,658.791l6.429,5l4.286,10.714l-5,3.571l2.143,17.857l4.286,9.285
		l0.714,21.429l8.571,18.571l-2.857,5.715h7.144l5-3.571h10l7.143-7.857h5.714l5.715-7.857h12.143l15.715-5l-0.715-13.571
		l2.857-10.714l-3.571-0.715l3.571-15l13.571-7.143l3.571-10l9.286-5.714l5-7.144l4.285,7.144l10.715-0.715l0.714,5h4.286
		l-6.429,7.143l1.429,15.715L505,683.791l-4.285,0.714l1.429,12.857h-5l-0.715,6.429l5,2.856l0.715,5.715l-5,0.714L495,727.363
		l-5,6.429l-0.714,5.714L490,743.076z"/>
	<path id="path2268" opacity="0.7" fill="#009133" stroke="#FFFFFF" stroke-width="3" d="M537.5,807.005l6.468,1.152l3.787,7.324
		l15.152,8.586l6.819-2.525l9.597,14.899l-0.758,7.071l7.07,0.758l1.263-3.788l2.273,2.525l2.021,8.586l20.203,1.769l5.808-4.294
		l17.173,17.931l-7.071,9.849l2.021,8.081l7.576-2.777l2.525-6.313l13.637,7.323l7.324,7.829l3.03,11.111l4.546-0.252l-3.536,7.07
		l7.071,5.809v4.041l-5.303,4.04l5.303,4.041l-0.758,4.293l5.557-3.788l15.404-4.041l2.525-5.556l11.617,2.778l3.787,6.061
		l3.283-5.303l-1.768-4.293l10.354-9.85l12.879,5.304l12.122-0.758l2.021-6.566l4.546-3.03l5.808,5.556h8.587l10.606-10.606v-6.061
		l-5.556,0.505v-4.293l7.576-4.799l2.02-10.858l5.304-0.758v-10.102l-10.606-5.051l-0.505-6.566l5.808-7.576l-6.818-8.081
		l-4.293,4.041l-5.051-2.021l0.758-10.354l-11.617-18.94l-8.586,2.272l-4.293-19.445l4.293-6.062l-1.01-7.828l6.061,1.01
		l2.272-4.293l-13.132-7.323l6.062-7.071l4.293-10.102l-0.253-9.344l8.081-1.263l1.769-3.283l6.565-2.272v-5.304l-4.546-2.777
		l-1.01-5.809l9.849-6.566l3.536-9.597l-4.799-3.282l1.011-4.294l7.071-4.545l1.768-13.133l17.425-8.333l0.758-17.173l15.404-4.546
		l2.525-11.111l-5.556,1.515l1.263-19.192l-2.021-25.507l-8.333-3.788v-2.525l-5.304,0.758l-6.313-3.283l-2.778,2.778l-17.678-6.818
		l-2.02,8.334l5.051,2.777l-5.809,17.425l9.344-0.505l-2.525,5.304l-16.415,2.272l-1.01,3.283l-1.263-3.283l-11.112-2.777
		l-3.282,6.061l-8.082-3.788l8.587-14.899l-8.334-3.536l-1.515-15.909l3.03-2.021v-2.525l-14.143,1.768l-10.102-5.556
		l-12.122-12.627l-9.344,5.556l-8.334-6.818l-3.03-8.586l-11.111,6.818l-11.112-9.344l-5.05,3.282l-0.253,5.051h4.041l2.777,3.788
		l-9.808,8.847l2.747,5.728l-6.071,7.144l4.285,5l-6.429,4.643l-5.714,2.5l-2.5,3.571l1.786,2.857l5.356-5l6.071,2.143l1.429,10.715
		l-14.285,10l-12.5,9.643l-2.5-3.215l-9.286,3.572l3.929,3.928l-6.786,4.286l-3.571-3.571l-5,4.643l7.144,0.715l3.571,3.928
		l-0.357,7.857l11.071,13.929l-2.5,5.714l-7.5,1.786l6.786,6.786l-1.071,3.571l-10.357-1.071l-1.429,5l-19.286,3.214l-9.285-2.857
		l-10.715,2.144l-2.5-5l0.715-6.786l-3.571,7.857l1.429,10.714l-6.072,11.071l-6.071,5.357l-3.571-2.857l-2.143,6.071l-3.929,0.715
		l10,14.643l-2.143,4.643l4.285,2.144l7.5-3.929l3.215,1.785l7.143,7.857l3.571,0.357l-1.071,9.285l5.357,7.5L570,758.434
		l-7.5,2.143l-5.714,8.215l4.285,3.571l-6.785,5.714h-3.929l0.714,2.857l-8.571,5l-1.785,11.071L537.5,807.005z"/>
	<path id="path2275" opacity="0.7" fill="#009133" stroke="#FFFFFF" stroke-width="3" d="M813.678,645.776l2.037,8.016l7.856,3.928
		l4.644-2.143l1.071-5.357L840,653.076l-1.071,4.643l1.786,1.072l-2.5,6.071l5.714,1.071l5.715-2.5l-1.072-5.715l-4.285-1.071
		l2.5-3.571l-1.429-3.571l12.5-4.643l-2.143-10.715l-4.286-6.071l7.857-6.071l3.214-6.786l21.786-10l-3.215-3.928l7.144-14.644
		l5.356-0.356l7.857,6.785l12.5-8.571l-2.857-8.571l-8.214-5.357l-5.714-10l6.785-10l-1.429-5l2.144-6.071l-1.786-8.571l-7.5-1.786
		l0.357-10.714l-9.644-5.715l-4.285,2.5l-5.715-3.571l-12.5,4.286l-4.285-10l-5.357-2.143l3.215-4.644l-6.072-2.143l0.357-6.786
		l6.071-3.571l6.429-9.643h4.643v-6.071l7.144-7.857l-3.571-2.143l-4.644,2.143l-13.214-2.857l-1.071,4.286L850,463.076l1.071-4.643
		l-3.571-3.215l5-2.856l-6.429-9.644l-5.714-3.571l-5.714-14.643l-6.072-2.143l-6.071,2.143l-7.5-3.571l-1.785,5l-1.429-5.715
		l1.785-5.714l-6.428-5.357l-10.357,1.786l-3.215-3.929l-12.5,5.714L775,412.005l4.644,6.786l-6.786,11.071l-6.786-3.929
		l-11.428,2.143l-5.357-10l-8.215-4.285l-5.356,2.5l-9.286-1.072l-7.143-4.285l5.357-10.714l-2.857-5.357l1.785-2.857l-1.428-2.143
		l-11.072,2.143l-0.714,7.857l-13.571,5l-10.715,4.643l-7.143,2.143l-1.429,6.786l-10.356,7.143l-1.072-3.214l-3.571-3.215v3.929
		l-4.285,3.929h-7.5l-6.071-5.357l-1.786-5.356l-1.786,1.785l-8.214-0.357l-9.643,7.144l-0.357,5l-8.571-5.715l-4.643,6.071
		l-5-0.356l-0.715-3.929l-2.5,3.571l-14.643-1.786l0.357,4.286l3.214,4.643l-3.929,2.5l-9.285-2.143l-7.857-6.071l-1.429,4.643
		l-8.571-2.143l-5.357-5.715v-7.143l-6.785-4.285l-1.072,6.785h-4.643v8.929h3.929l1.429,5.357l-5.715,1.071l1.072,13.571
		l-2.857,3.214l-1.429,7.144l0.357,8.571l4.643,4.643v3.571l7.5,6.071l6.071,13.215l1.071,7.857l8.571,1.071l4.644,9.285l9.643-2.5
		l-3.571,4.286l2.5,6.785l5-2.143l-0.715,4.643l4.644,5l2.143-4.285l3.929-1.071L605,545.219v5.715l-2.856,1.785l3.214,6.786
		l12.857,1.429l-1.786,7.857l5.357,5.356l14.285-10l3.572,3.929l4.643-2.857l2.253,1.772l9.808-8.847l-2.777-3.788h-4.041
		l0.253-5.051l5.05-3.282l11.112,9.344l11.111-6.818l3.03,8.586l8.334,6.818l9.344-5.556l12.122,12.627l10.102,5.556l14.143-1.768
		v2.525l-3.03,2.021l1.515,15.909l8.334,3.536l-8.587,14.899l8.082,3.788l3.282-6.061l11.112,2.777l1.263,3.283l1.01-3.283
		l16.415-2.272l2.525-5.304l-9.344,0.505l5.809-17.425l-5.051-2.777l2.02-8.334l17.678,6.818l2.778-2.778l6.313,3.283l5.304-0.758
		v2.525l8.333,3.788l2.021,25.507l-1.263,19.192l5.556-1.515L813.678,645.776z"/>
	<path id="path2205" opacity="0.7" fill="#009133" stroke="#FFFFFF" stroke-width="3" d="M569.286,430.934l-1.429,4.643
		l-8.571-2.143l-5.357-5.715v-7.143l-6.785-4.285l-6.072-6.429l-6.428,0.714l-11.786,8.929l-5-2.5l0.714-8.571L515,406.648
		l-2.5,3.929l-14.643,0.715l-0.714-5H492.5l-3.929-8.571l-12.5-4.643l-8.214,7.5h-13.214l-6.429-3.929l-0.715,6.072l-1.429,3.928
		l5,7.857l-3.928,5.357l-9.644,1.071l-2.143-9.643l-5.714,7.5l-10.357,2.856l-1.429,5l-7.5-5L410,415.219l-8.571,0.357
		l-10.714,8.215l-12.5,1.428l0.356,6.429l-6.428-0.356l-3.929-6.786l-2.5,1.786l1.429,3.214h-4.286l-6.071,9.643l-7.857-1.429
		l-4.285,4.644l-8.929-6.786L330,434.505l-8.571-8.571h-4.643v4.643l-5,1.786l-8.215,2.143l-4.285-1.429l-7.143,5l-20,5.714
		l-12.857-4.285l-7.857-7.143l1.429-9.286l4.731,1.981l7.576,1.01l2.525-3.03l-4.041-5.051v-4.546l4.041-8.586h4.546l-1.01,5.051
		h7.576l1.515-5.556l4.041,4.545l2.525-5.051l6.566-0.505l6.566-12.122v-8.082h-9.091l6.566-15.657l5.051-0.505l1.515-6.061
		l-5.051-6.566h3.536l3.535-11.617l10.606,5.556l3.536-9.091l2.525-2.525l-4.546-8.586l4.041-9.091l8.586,3.536l11.111-9.091
		l-3.535-4.546l4.546-2.525l1.01-6.566l6.043-0.293l1.071-2.857l9.644,1.429l6.071,7.857l7.143,1.428l5-5.714l-1.071,6.786
		l4.643,1.428l-0.356,4.286l8.214,1.786l8.214-3.572l3.929,3.572l5.715-6.072l9.285,7.143l7.144-4.643l5.714,5l6.786-0.357
		l1.785-7.857h4.643l5.715-3.571l10-1.429l1.429,2.857l3.214,0.714l-1.785,7.857l2.856-4.643l6.071-7.857l7.857,1.786l6.786-7.143
		l5.356,6.071l0.357,6.071h8.215l8.214-4.643l7.857-1.786l2.143-5h8.571l5-4.286l3.929,5l6.786-1.071l3.928,7.143l6.786-1.786
		l3.571,3.571l5.715-3.929l-1.072-10.357h9.644l10,10.714l-3.571,3.214h-3.572l-2.5-2.143l2.144,10H570l-8.571,6.071l0.715,7.5
		l-11.072,7.5l6.072,12.143l3.928-2.143l3.929,4.643l11.071-4.643l1.429,3.929h10.357l2.143,7.143l-3.571,9.286l-4.643-2.5
		l0.714,3.928l-4.285,7.143l-2.144,15.714l3.572,0.357l-3.215,8.571l-5-0.714v12.143l-2.5,7.857l4.286,3.571L569.286,430.934z"/>
	<path id="path2229" opacity="0.7" fill="#009133" stroke="#FFFFFF" stroke-width="3" d="M431.428,503.076l-1.071-6.429l9.286-5.356
		l10,3.928l7.856-3.928l-4.643-3.929l-1.071-10.357l5-1.786l8.214,5.715l1.071-3.929l5.715-3.214l3.571,8.928l4.286-3.928
		c0,0,6.071-1.786,6.071-0.357s2.5,4.643,2.5,4.643l3.929-8.214h3.928l18.572-5.715l3.214-2.5l6.071,0.715l3.571-7.144l5.357-1.428
		l5,3.571l1.429-7.144l2.857-3.214l-1.072-13.571l5.715-1.071l-1.429-5.357h-3.929v-8.929h4.643l1.072-6.785l-6.072-6.429
		l-6.428,0.714l-11.786,8.929l-5-2.5l0.714-8.571L515,406.648l-2.5,3.929l-14.643,0.715l-0.714-5H492.5l-3.929-8.571l-12.5-4.643
		l-8.214,7.5h-13.214l-6.429-3.929l-0.715,6.072l-1.429,3.928l5,7.857l-3.928,5.357l-9.644,1.071l-2.143-9.643l-5.714,7.5
		l-10.357,2.856l-1.429,5l-7.5-5L410,415.219l-8.571,0.357l-10.714,8.215l-12.5,1.428l0.356,6.429l-6.428-0.356l-3.929-6.786
		l-2.5,1.786l1.429,3.214h-4.286l-6.071,9.643l-7.857-1.429l-4.285,4.644l-8.929-6.786L330,434.505l-8.571-8.571h-4.643v4.643
		l-5,1.786l-8.215,2.143l2.857,8.571L305,450.934v12.856l12.144,3.572l9.285-14.286l5.715,4.286l0.714,10.714l11.429,4.286
		l0.714,7.856l7.144,1.429l6.428,7.143l8.572,3.572l0.714,10l7.857-8.572H385l20,3.572l-2.143,10.714l8.571-5l2.857,5.714
		L431.428,503.076z"/>
	<path id="path2196" opacity="0.7" fill="#009133" stroke="#FFFFFF" stroke-width="3" d="M381.071,412.005l25.715-12.857
		l-9.286-6.786l1.786-3.928h5.357l-2.857-12.857l-12.143-7.143l4.285-4.643l-1.071-7.143l-8.571-6.428l-6.071,7.143l-8.929-3.928
		l-14.643,10.357l3.214,16.786l-9.286,1.429l-3.928,8.214l7.856,3.571l7.5-1.071l7.144,15l10.714,0.714L381.071,412.005z"/>
	<path id="path2302" opacity="0.7" fill="#009133" stroke="#FFFFFF" stroke-width="3" d="M775,412.005l-0.718-6.393l-6.566,1.263
		l-3.535,4.798l-2.525-4.798l-7.576,4.545l-4.798-5.303l-2.273,1.515l-3.535-8.586l-8.081,7.829l-0.253,5.303l-5.304-4.546
		l-10.549,3.302l7.143,4.285l9.286,1.072l5.356-2.5l8.215,4.285l5.357,10l11.428-2.143l6.786,3.929l6.786-11.071L775,412.005z"/>
</g>
<path id="path2624-1" sodipodi:nodetypes="ccccccccccccccccccccc" opacity="0.7" fill="#009133" stroke="#FFFFFF" stroke-width="3" d="
	M127.824,304.758l-2.691,6.134l-15.346,0.551l-5.609,2.653l-9.428,14.827l-11.522-4.633l-7.071-10.102l3.536-1.516l-3.03-5.051
	l8.081-3.536l5.051,4.545l6.566-3.03v-2.525l11.617-4.041l-5.051-8.586l14.142-6.061l4.546,1.515v9.597l4.217,1.763l-2.702,3.792
	L127.824,304.758L127.824,304.758z"/>
</svg>
